<?xml version="1.0"?>
<svg width="229" height="58" xmlns="http://www.w3.org/2000/svg" xmlns:svg="http://www.w3.org/2000/svg" xmlns:xlink="http://www.w3.org/1999/xlink" enable-background="new 0 0 229 58" version="1.1" xml:space="preserve">
 <style type="text/css">.st0{clip-path:url(#SVGID_2_);}
	.st1{fill:url(#SVGID_3_);}
	.st2{clip-path:url(#SVGID_5_);}
	.st3{fill:url(#SVGID_6_);}
	.st4{clip-path:url(#SVGID_8_);}
	.st5{fill:url(#SVGID_9_);}
	.st6{fill:#3C3C3B;}</style>
 <g class="layer">
  <title>Layer 1</title>
  <g id="Layer_2_1_">
   <g id="Layer_1-2">
    <g id="svg_1">
     <g id="svg_2">
      <g id="svg_3">
       <defs>
        <path d="m23.3,1l-22.1,12.7c-0.9,0.5 -1.4,1.4 -1.4,2.3l0,25.6c0,1 0.5,1.8 1.4,2.3l22.1,12.8c0.9,0.5 1.8,0.5 2.7,0l22.1,-12.7c0.9,-0.5 1.4,-1.4 1.4,-2.3l0,-25.6c0,-1 -0.5,-1.8 -1.4,-2.3l-22.1,-12.8c-0.9,-0.5 -1.8,-0.5 -2.7,0" id="SVGID_1_"/>
       </defs>
       <clipPath id="SVGID_2_">
        <use id="svg_4" overflow="visible" xlink:href="#SVGID_1_"/>
       </clipPath>
       <g class="st0" id="svg_5">
        <linearGradient gradientTransform="matrix(-50.753 103.536 103.536 50.753 -147454.0156 194026.2031)" gradientUnits="userSpaceOnUse" id="SVGID_3_" x1="-2073.99" x2="-2073.36" y1="407.91" y2="407.91">
         <stop offset="0.3" stop-color="#3E863D"/>
         <stop offset="0.5" stop-color="#55934F"/>
         <stop offset="0.8" stop-color="#5AAD45"/>
        </linearGradient>
        <path class="st1" d="m71.9,11.6l-62.4,-30.6l-32,65.3l62.4,30.6l32,-65.3z" id="svg_6"/>
       </g>
      </g>
     </g>
     <g id="svg_7">
      <g id="svg_8">
       <defs>
        <path d="m0.4,43.3c0.2,0.3 0.5,0.5 0.8,0.7l19,11l3.2,1.8c0.5,0.3 1,0.4 1.5,0.4c0.2,0 0.4,0 0.5,-0.1l23.4,-42.8c-0.2,-0.2 -0.4,-0.4 -0.6,-0.5l-14.5,-8.4l-7.7,-4.5c-0.2,-0.1 -0.5,-0.2 -0.7,-0.3l-24.9,42.7z" id="SVGID_4_"/>
       </defs>
       <clipPath id="SVGID_5_">
        <use id="svg_9" overflow="visible" xlink:href="#SVGID_4_"/>
       </clipPath>
       <g class="st2" id="svg_10">
        <linearGradient gradientTransform="matrix(142.407 -105.222 -105.222 -142.407 335195.0312 -165725.2812)" gradientUnits="userSpaceOnUse" id="SVGID_6_" x1="-2078.95" x2="-2078.54" y1="372" y2="372">
         <stop offset="0.57" stop-color="#3E863D"/>
         <stop offset="0.72" stop-color="#619857"/>
         <stop offset="1" stop-color="#76AC64"/>
        </linearGradient>
        <path class="st3" d="m-26.6,20.6l44.1,59.6l58.3,-43.1l-44,-59.5l-58.4,43z" id="svg_11"/>
       </g>
      </g>
     </g>
     <g id="svg_12">
      <g id="svg_13">
       <defs>
        <path d="m24.4,0.5c-0.4,0 -0.8,0.2 -1.1,0.4l-22,12.8l23.8,43.3c0.3,0 0.7,-0.2 1,-0.3l22.1,-12.8c0.7,-0.4 1.2,-1.1 1.3,-1.8l-24.4,-41.6c-0.2,-0.1 -0.4,-0.1 -0.5,-0.1c0,0.1 -0.1,0.1 -0.2,0.1" id="SVGID_7_"/>
       </defs>
       <clipPath id="SVGID_8_">
        <use id="svg_14" overflow="visible" xlink:href="#SVGID_7_"/>
       </clipPath>
       <g class="st4" id="svg_15">
        <linearGradient gradientTransform="matrix(129.889 0 0 -129.889 268419.4375 48413.3125)" gradientUnits="userSpaceOnUse" id="SVGID_9_" x1="-2066.52" x2="-2066.15" y1="372.51" y2="372.51">
         <stop offset="0.16" stop-color="#6BBF47"/>
         <stop offset="0.38" stop-color="#79B461"/>
         <stop offset="0.47" stop-color="#75AC64"/>
         <stop offset="0.7" stop-color="#659E5A"/>
         <stop offset="0.9" stop-color="#3E863D"/>
        </linearGradient>
        <path class="st5" d="m1.3,0.5l0,56.5l48.2,0l0,-56.5l-48.2,0z" id="svg_16"/>
       </g>
      </g>
     </g>
    </g>
    <text fill="#000000" font-family="Serif" font-size="24" id="svg_110" stroke="#000000" stroke-width="0" text-anchor="middle" transform="matrix(1.88204 0 0 1.52094 -73.1689 0.379922)" x="108.5" xml:space="preserve" y="25.4">Dishify</text>
   </g>
  </g>
 </g>
</svg>